<?xml version="1.0" encoding="iso-8859-1"?>
<!-- Generator: Adobe Illustrator 19.0.0, SVG Export Plug-In . SVG Version: 6.00 Build 0)  -->
<svg version="1.1" id="Layer_1" xmlns="http://www.w3.org/2000/svg" xmlns:xlink="http://www.w3.org/1999/xlink" x="0px" y="0px"
	 viewBox="0 0 512.001 512.001" style="enable-background:new 0 0 512.001 512.001;" xml:space="preserve">


<path style="fill:#000070;" d="M127.631,139.037h256.803c8.199,0,14.907,6.708,14.907,14.907v141.903
	c0,8.199-6.708,14.907-14.907,14.907H127.631c-8.199,0-14.907-6.708-14.907-14.907V153.944
	C112.723,145.745,119.431,139.037,127.631,139.037z"/>
<path style="fill:#0b0b87;" d="M394.925,143.394c2.695,2.695,4.358,6.422,4.358,10.549v141.903c0,8.199-6.708,14.907-14.907,14.907
	H127.572c-4.988,0-9.46-2.466-12.154-6.307l279.45-161.053L394.925,143.394L394.925,143.394z"/>
<path style="fill:#F7F7F8;" d="M126.77,150.16h258.58v149.414H126.77V150.16z"/>
<path style="fill:#0b0b87;" d="M111.52,316.317h143.853h1.262h143.854c3.726,0,25.629,32.165,29.298,36.579
	c2.293,2.81,0.918,4.816-2.81,4.816l-171.03-0.401l-171.03,0.401c-3.669,0-5.103-2.064-2.81-4.816
	c3.669-4.415,25.572-36.579,29.298-36.579H111.52z"/>
<path style="fill:#000070;" d="M111.52,316.317c-3.726,0-25.629,32.165-29.298,36.579c-2.293,2.81-0.918,4.816,2.81,4.816
	l171.03-0.401l171.03,0.401c2.523,0,4.013-0.975,3.898-2.465l-319.413-38.93H111.52z"/>
<path style="fill:#0b0b87;" d="M96.727,372.733c-3.726,0-14.85-10.091-15.423-15.136l-0.229-2.121c115.358,0,234.556,0,349.914,0
	l-0.229,2.121c-0.573,4.988-10.549,15.136-14.219,15.136c-106.815,0.344-212.941,0.344-319.757,0H96.727z"/>
<path style="fill:#EBECEC;" d="M228.367,341.257h15.251h28.725h15.251l4.816,12.27h-20.01h-28.725h-20.01l4.816-12.27H228.367z"/>
<path style="fill:#0b0b87;" d="M177.741,310.755h18.806v5.504h-18.806V310.755z M315.516,310.755h18.806v5.504h-18.806V310.755z"/>
<path style="fill:#808080;" d="M168.625,232.034v-10.607v-0.86l0.802-0.344l60.889-25.801l1.835-0.745v1.949v11.352v0.86
	l-0.802,0.344l-45.352,18.633l45.352,18.864l0.802,0.344v0.86v11.352v2.006l-1.835-0.802l-60.889-26.202l-0.802-0.344V232.034z
	 M236.796,273.601l26.833-95.463l0.286-0.975h0.975h9.117h1.72l-0.458,1.663l-26.832,95.463l-0.286,0.975h-0.975h-9.117h-1.72
	L236.796,273.601z M342.521,233.238l-60.889,26.202l-1.835,0.802v-2.006v-11.352v-0.86l0.802-0.344l45.237-18.864l-45.237-18.633
	l-0.802-0.344v-0.86v-11.352v-1.949l1.835,0.745l60.889,25.801l0.802,0.344v0.86v10.607v0.86L342.521,233.238z"/>
<g>
</g>
<g>
</g>
<g>
</g>
<g>
</g>
<g>
</g>
<g>
</g>
<g>
</g>
<g>
</g>
<g>
</g>
<g>
</g>
<g>
</g>
<g>
</g>
<g>
</g>
<g>
</g>
<g>
</g>
</svg>
